<?xml version="1.0"?><svg width="640.0000000000001" height="1299" xmlns="http://www.w3.org/2000/svg">
 <title>Blue Swirl</title>

 <g>
  <title>Layer 1</title>
  <path id="svg_1" fill="#FFFFFF" fill-rule="evenodd" stroke="#FFFFFF" stroke-width="0.5px" d="m148.800003,3l-6.800003,-3l249,0l249,0l0,496l0,496l-0.200012,0l-0.299988,0l-0.5,2.5l-0.5,2.5l-0.5,-1l-0.5,-1l-0.5,3q-0.5,3 -1,5q-0.5,2 -0.799988,3l-0.200012,1l-0.200012,1.5l-0.299988,1.5l-0.5,1.5l-0.5,1.5l-0.5,2.5q-0.5,2.5 -5,13q-4.5,10.5 -13.200012,24q-8.799988,13.5 -9.799988,13.5q-1,0 -1.200012,1q-0.299988,1 -7.299988,7q-7,6 -19.700012,13.199951q-12.799988,7.300049 -29.299988,11.300049q-16.5,4 -31.5,4.5q-15,0.5 -29.5,-2q-14.5,-2.5 -27,-7.5q-12.5,-5 -25.5,-13.5q-13,-8.5 -24.5,-20q-11.5,-11.5 -20.700012,-24.800049q-9.299988,-13.199951 -15.599976,-28.199951l-6.200012,-15l-0.200012,-2q-0.299988,-2 -1.299988,-7q-1,-5 -1.5,-24.5q-0.5,-19.5 0.5,-27.5q1,-8 6,-27.5q5,-19.5 13.5,-40l8.5,-20.5l0.5,-1l0.5,-1l0.5,-1l0.5,-1l0.299988,-1.5l0.200012,-1.5l1,0l1,0l-0.200012,1l-0.299988,1l-0.5,1.5l-0.5,1.5l-0.299988,0.5l-0.200012,0.5l-0.200012,1l-0.299988,1l-1.5,6.5q-1.5,6.5 -1,22q0.5,15.5 4.5,26q4,10.5 10.299988,17.700012q6.200012,7.299988 15.700012,11.799988q9.5,4.5 11.5,5q2,0.5 5,1l3,0.5l4,0l4,0l-1,-0.5l-1,-0.5l-1,-0.5l-1,-0.5l-1,-0.5l-1,-0.5l-1,-0.5q-1,-0.5 -2.5,-1.5q-1.5,-1 -4.700012,-5.299988q-3.299988,-4.200012 -3.799988,-9.700012q-0.5,-5.5 0.5,-8.5l1,-3l0.299988,-0.200012l0.200012,-0.299988l0.200012,-0.299988l0.299988,-0.200012l0.299988,-1l0.200012,-1l-1,0.200012l-1,0.299988l-2,0.5q-2,0.5 -11,-0.5q-9,-1 -13.799988,-4.299988q-4.700012,-3.200012 -7.700012,-9.200012q-3,-6 -3.5,-17.5q-0.5,-11.5 0.799988,-19.5l1.200012,-8l0.200012,0q0.299988,0 0.799988,-1.5q0.5,-1.5 7.5,-19q7,-17.5 17.299988,-34.700012q10.200012,-17.299988 20.700012,-33l10.5,-15.799988l0.5,-0.200012q0.5,-0.299988 0.5,-0.599976l0,-0.200012l0.200012,-0.5l0.299988,-0.5l0.5,-1q0.5,-1 2.799988,-4.799988q2.200012,-3.700012 10.400024,-23q8.299988,-19.200012 12.799988,-39.700012q4.5,-20.5 5,-40q0.5,-19.5 -1,-32q-1.5,-12.5 -7.5,-33.5q-6,-21 -15,-39q-9,-18 -19,-32q-10,-14 -24.700012,-29.799988q-14.799988,-15.700012 -34.799988,-32.400024l-20,-16.799988l-0.200012,-0.5q-0.299988,-0.5 -0.599976,-0.5l-0.200012,0l-0.5,-0.200012l-0.5,-0.299988l-0.200012,-0.299988l-0.299988,-0.200012l-0.299988,-0.200012q-0.200012,-0.299988 -18.400024,-13q-18.299988,-12.799988 -53,-34q-34.799988,-21.299988 -88.799988,-53l-54,-31.799988l-0.199997,-0.5q-0.300003,-0.5 -15,-11.700012l-14.800003,-11.299988l-0.199997,-0.300003l-0.300003,-0.199997l-0.300003,-0.199997l-0.199997,-0.300003l-0.199997,-0.300003l-0.300003,-0.199997l-0.300003,-0.199997l-0.199997,-0.300003l-0.199997,-0.300003l-0.300003,-0.199997l-0.300003,-0.199997l-0.199997,-0.300003l-0.199997,-0.300003l-0.300003,-0.199997l-0.300003,-0.199997l-0.199997,-0.300003l-0.199997,-0.300003l-0.300003,-0.199997l-0.300003,-0.199997l-0.199997,-0.300003l-0.199997,-0.300003l-0.300003,-0.199997l-0.300003,-0.199997l-0.199997,-0.300003l-1,-0.5l-1,-0.5l-0.199997,-0.300003l-0.300003,-0.199997l-0.300003,-1l-0.199997,-1l1,0.199997l1,0.300003l0.199997,0.300003l0.300003,0.199997l0.300003,0.199997l0.199997,0.300003l0.199997,0.300003l0.300003,0.199997l0.300003,0.199997l0.199997,0.300003l0.199997,0.300003l0.300003,0.199997l0.300003,0.199997l0.199997,0.300003l1,0.5l1,0.5l0.199997,0.300003l0.300003,0.199997l0.300003,0.199997l0.199997,0.300003l1,0.5l1,0.5l0.199997,0.300003l0.300003,0.199997l16.300003,9.799988q16.199997,9.700012 17.199997,10.200012l1,0.5l1,0.5l1,0.5l1,0.299988l1,0.200012l0,0.200012l0,0.299988l1,0.5l1,0.5l1,0.5l1,0.5l19,8.5q19,8.5 42.5,15.5q23.5,7 48.5,11q25,4 55,3.5q30,-0.5 55,-4.5q25,-4 44,-10q19,-6 31.799988,-12.700012q12.700012,-6.799988 24.700012,-16.799988q12,-10 21,-22q9,-12 15.5,-26q6.5,-14 9.5,-26q3,-12 4,-29.5q1,-17.5 -1.5,-32.5q-2.5,-15 -4,-20q-1.5,-5 -2,-6.5l-0.5,-1.5l-0.5,-1l-0.5,-1l-0.5,-1.5l-0.5,-1.5l-0.5,-1l-0.5,-1l-0.299988,-0.199997l-0.200012,-0.300003l-0.200012,-0.300003l-0.299988,-0.199997l0,1l0,1l0.5,1.5l0.5,1.5l0.5,2l0.5,2l0.5,2q0.5,2 2.5,12q2,10 2.5,26q0.5,16 -2.5,32.5q-3,16.5 -9.5,32q-6.5,15.5 -15.5,28q-9,12.5 -19,21.5q-10,9 -25.299988,17.799988q-15.200012,8.700012 -32.200012,14.700012q-17,6 -39,10q-22,4 -49,4.5q-27,0.5 -38.5,-0.5q-11.5,-1 -35,-5.5l-23.5,-4.5l-2.5,-0.5l-2.5,-0.5l-0.199997,-0.299988l-0.300003,-0.200012l-0.300003,-0.200012l-0.199997,-0.299988l0,-0.299988l0,-0.200012l1,0l1,0l0.199997,0l0.300003,0l0.300003,0.5l0.199997,0.5l2,0.200012l2,0.299988l15,2.5q15,2.5 35,2q20,-0.5 34.5,-5q14.5,-4.5 26.299988,-11.200012q11.700012,-6.799988 22.200012,-17.299988q10.5,-10.5 16,-20.5q5.5,-10 8.5,-21q3,-11 3,-33q0,-22 -1.5,-31.5q-1.5,-9.5 -2,-12l-0.5,-2.5l-0.5,-2.5l-0.5,-2.5l-0.5,-2l-0.5,-2l-0.5,8.5q-0.5,8.5 -2,16q-1.5,7.5 -5.5,15.5q-4,8 -10.299988,12.199997q-6.200012,4.300003 -15.200012,4.800003q-9,0.5 -12,-0.5l-3,-1l-1.5,-0.5l-1.5,-0.5l-1,-0.5l-1,-0.5l-1,0l-1,0l0.200012,0.300003l0.299988,0.199997l0.5,1l0.5,1l0.299988,0.199997l0.200012,0.300003l0.200012,0.300003l0.299988,0.199997l0.5,1l0.5,1l0.5,1q0.5,1 1,2q0.5,1 4,12.5q3.5,11.5 4,26.5q0.5,15 -1.5,21q-2,6 -6.299988,11.200012q-4.200012,5.299988 -11.200012,10.299988q-7,5 -19.5,8.5q-12.5,3.5 -33,4q-20.5,0.5 -45,-4l-24.5,-4.5l-2,-0.5l-2,-0.5l-2,0l-2,0l0,0.299988l0,0.200012l-0.5,-0.200012q-0.5,-0.299988 -2.5,-0.299988q-2,0 -18.5,-7l-16.5,-7l-1,-0.5l-1,-0.5l-1,-0.299988l-1,-0.200012l0,-0.200012l0,-0.299988l-1,-0.5l-1,-0.5l-1,-0.5l-1,-0.5l-1,-0.5q-1,-0.5 -22,-13.5l-21,-13l-0.199997,-0.300003l-0.300003,-0.199997l-0.300003,-0.199997l-0.199997,-0.300003l-0.199997,-0.300003l-0.300003,-0.199997l-0.300003,-0.199997l-0.199997,-0.300003l-1,-0.5l-1,-0.5l-0.199997,-0.300003l-0.300003,-0.199997l-0.300003,-0.199997l-0.199997,-0.300003l-0.199997,-0.300003l-0.300003,-0.199997l-0.300003,-0.199997l-0.199997,-0.300003l1.5,0l1.5,0l1,0.5l1,0.5l1.5,0.5l1.5,0.5l2,0.5q2,0.5 10,2.5q8,2 27,4q19,2 34.5,1q15.5,-1 29,-4q13.5,-3 24,-8q10.5,-5 20.299988,-13.300003q9.700012,-8.199997 17.200012,-19.199997q7.5,-11 11,-21q3.5,-10 4,-22q0.5,-12 -2,-21q-2.5,-9 -9.200012,-20q-6.799988,-11 -7.799988,-11q-1,0 -3.200012,-2.5q-2.299988,-2.5 -9.799988,-8q-7.5,-5.5 -19.800003,-10.300003q-12.199997,-4.699997 -21.699997,-5.199997l-9.5,-0.5l3.5,0.5l3.5,0.5l2,0.5q2,0.5 8.5,2q6.5,1.5 18.5,8q12,6.5 15.5,10.199997q3.5,3.800003 4.5,4q1,0.300003 6.200012,7q5.299988,6.800003 9.299988,16.300003q4,9.5 4.5,22q0.5,12.5 -1.5,20q-2,7.5 -7.5,17q-5.5,9.5 -14.200012,18.300003q-8.799988,8.699997 -18.799988,14.199997q-10,5.5 -22,8.5q-12,3 -35,3.5q-23,0.5 -38.5,-2.5q-15.5,-3 -27.5,-7.5q-12,-4.5 -26.5,-14q-14.5,-9.5 -23.5,-18.5q-9,-9 -16.200001,-19.300003q-7.299999,-10.199997 -11.299999,-21.199997q-4,-11 -4.5,-23q-0.5,-12 2,-21.5q2.5,-9.5 7,-17.5q4.5,-8 14,-16.5q9.5,-8.5 20.199997,-15.700001q10.800003,-7.299999 37.800003,-19.799999q27,-12.5 31,-16l4,-3.5l0.199997,-0.3l0.300003,-0.2l0.5,-2l0.5,-2l0,-0.5l0,-0.5l-0.5,-1.5l-0.5,-1.5l-0.300003,-0.2q-0.199997,-0.3 -0.399994,-0.6q-0.300003,-0.2 -7,-3.2zm232.400009,12.2l5.799988,-3.7l1.5,0q1.5,0 -4.299988,5.700001q-5.700012,5.799999 -8.200012,12.299999q-2.5,6.5 -2,15q0.5,8.5 3.200012,10.299999q2.799988,1.700001 7.299988,1.400002q4.5,-0.200001 7,-8.400002q2.5,-8.299999 3.700012,-10q1.299988,-1.799999 1.599976,-2l0.200012,-0.299999l0.200012,-0.299999l0.299988,-0.200001l0.299988,-0.200001l0.200012,-0.299999l0.200012,-0.299999l0.299988,-0.200001l0.299988,-0.200001l0.200012,-0.299999l0.200012,-0.299999l0.299988,-0.200001l0.299988,-0.200001l0.200012,-0.299999l3,0l3,0l0.200012,0.299999l0.299988,0.200001l0.5,1l0.5,1l0.299988,0.200001l0.200012,0.299999l0.200012,0.299999l0.299988,0.200001l0.5,1.5q0.5,1.5 1.5,7q1,5.5 -0.700012,10.700001q-1.799988,5.299999 -5.799988,7.799999q-4,2.5 -11,3q-7,0.5 -12.200012,-2.200001q-5.299988,-2.799999 -8.799988,-8.299999q-3.5,-5.5 -3.5,-14.5q0,-9 3.5,-15.5q3.5,-6.5 9.200012,-10.3zm173.299988,884.8l5.5,-3.5l1.5,0q1.5,0 -3.5,3.5q-5,3.5 -8.200012,7.799988q-3.299988,4.200012 -3.299988,12.200012q0,8 2.700012,11.799988q2.799988,3.700012 3,4l0.299988,0.200012l0.299988,0.200012l0.200012,0.299988l1,0.5l1,0.5l0.200012,0.299988l0.299988,0.200012l0.299988,0.200012l0.200012,0.299988l1,0.5l1,0.5l2.5,0l2.5,0l0.200012,-0.299988l0.299988,-0.200012l0,-1.5l0,-1.5l-0.299988,-0.200012l-0.200012,-0.299988l-0.200012,-0.299988l-0.299988,-0.200012l-0.299988,-0.200012l-0.200012,-0.299988l-0.200012,-0.299988q-0.299988,-0.200012 -0.799988,-1.200012q-0.5,-1 -0.5,-8.5q0,-7.5 3.299988,-9.700012q3.200012,-2.299988 9.200012,-2.299988q6,0 9.799988,3.299988q3.700012,3.200012 4.700012,9.200012q1,6 -1.5,11q-2.5,5 -8.200012,8.200012q-5.799988,3.299988 -13.299988,3.799988q-7.5,0.5 -11.5,-1.5q-4,-2 -7.799988,-7.700012q-3.700012,-5.799988 -3.700012,-14.799988q0,-9 3.700012,-14.799988q3.799988,-5.700012 9.299988,-9.200012z"/>
  <path id="svg_2" fill="#FFFFFF" fill-rule="evenodd" stroke="#FFFFFF" stroke-width="0.5px" d="m63,25l-1,0.5l-0.200001,0.299999l-0.299999,0.200001l-0.299999,0.200001l-0.200001,0.299999l-0.200001,0.299999l-0.299999,0.200001l-0.299999,0.200001l-0.200001,0.299999l-1,0.5l-1,0.5l-0.200001,0.299999l-0.299999,0.200001l-12,12q-12,12 -18.5,23q-6.5,11 -10,23.5q-3.5,12.5 -3,30.5q0.5,18 5,31q4.5,13 11.799999,23.800003q7.200001,10.699997 22.200001,29.699997q15,19 29.5,33q14.5,14 37,31q22.5,17 23.5,17.5l1,0.5l0.199997,0.299988l0.300003,0.200012l0.300003,0.200012l0.199997,0.299988l1,0.299988l1,0.200012l0,0.200012l0,0.299988l35.5,22q35.5,22 82.299988,50.299988q46.700012,28.200012 68.700012,43.700012q22,15.5 22.299988,15.700012l0.200012,0.299988l1,0.299988l1,0.200012l0,0.200012l0,0.299988l0.200012,0.299988l0.299988,0.200012l0.299988,0.200012l0.200012,0.299988l0.200012,0.299988l0.299988,0.200012l0.299988,0.200012l0.200012,0.299988l0.200012,0.299988l0.299988,0.200012l18,15.5q18,15.5 32,30.5q14,15 25,30.5q11,15.5 19,32.5q8,17 13,35q5,18 6.5,29.5q1.5,11.5 1,29q-0.5,17.5 -5,36.5q-4.5,19 -13.5,42q-9,23 -10.299988,25.200012q-1.200012,2.299988 -1.400024,2.599976l-0.299988,0.200012l-0.299988,1l-0.200012,1l-17.200012,22.5q-17.299988,22.5 -40.599976,45.700012q-23.200012,23.299988 -41.700012,37.799988q-18.5,14.5 -20.5,16q-2,1.5 -3,2l-1,0.5l-0.200012,0.299988l-0.299988,0.200012l-0.299988,0.200012l-0.200012,0.299988l-1,0.299988l-1,0.200012l0,1l0,1l-1,0.200012l-1,0.299988l0.200012,0.299988l0.299988,0.200012l0.299988,0.200012l0.200012,0.299988l0.5,0l0.5,0l0.200012,-0.299988l0.299988,-0.200012l0.299988,-0.200012l0.200012,-0.299988l1,-0.5l1,-0.5l1,-0.5l1,-0.5l0.200012,-0.299988l0.299988,-0.200012l0.299988,-0.200012l0.200012,-0.299988l0.200012,-0.299988q0.299988,-0.200012 1.599976,-1q1.200012,-0.700012 15.400024,-11.400024l14.299988,-10.799988l0.299988,-0.200012l0.200012,-0.299988l0.200012,-0.299988l0.299988,-0.200012l0.299988,-0.200012l0.200012,-0.299988l1,-0.5l1,-0.5l0.200012,-0.299988l0.299988,-0.200012l0.299988,-0.200012l0.200012,-0.299988l0.200012,-0.299988l0.299988,-0.200012l0.299988,-0.200012l0.200012,-0.299988l0.200012,-0.299988l0.299988,-0.200012l0.299988,-0.200012l0.200012,-0.299988l0.200012,-0.299988l0.299988,-0.200012l0.299988,-0.200012l0.200012,-0.299988l0.200012,-0.299988l0.299988,-0.200012l0.299988,-0.200012l0.200012,-0.299988l1,-0.299988l1,-0.200012l-0.200012,1l-0.299988,1l-0.299988,0.200012l-0.200012,0.299988l-1,0.5l-1,0.5l-0.200012,0.299988l-0.299988,0.200012l-0.299988,0.200012l-0.200012,0.299988l-0.200012,0.299988l-0.299988,0.200012l-0.299988,0.200012l-0.200012,0.299988l-0.200012,0.299988l-0.299988,0.200012l-0.299988,0.200012l-0.200012,0.299988l-0.200012,0.299988l-0.299988,0.200012l-0.299988,0.200012l-0.200012,0.299988l-0.200012,0.299988l-0.299988,0.200012l-0.299988,0.200012l-0.200012,0.299988l-0.200012,0.299988l-0.299988,0.200012l-0.299988,0.200012l-0.200012,0.299988l-26.200012,26.700012q-26.299988,26.799988 -26.599976,27.799988q-0.200012,1 -1.200012,1q-1,0 -21.200012,25q-20.299988,25 -33.299988,45.5q-13,20.5 -22,41q-9,20.5 -14.5,42.5q-5.5,22 -5.5,49q0,27 4.5,47q4.5,20 11.5,38q7,18 16.5,34q9.5,16 18.799988,28q9.200012,12 10.400024,12.5q1.299988,0.5 1.599976,1.5q0.200012,1 1.200012,1q1,0 2.5,1.800049q1.5,1.699951 2.5,1.399902q1,-0.199951 1,0.800049q0,1 1,1q1,0 4.200012,3.5q3.299988,3.5 3.599976,3.699951l0.200012,0.300049l1,0.5l1,0.5l0.5,0q0.5,0 1,-0.5l0.5,-0.5l0,-0.300049l0,-0.199951l0.799988,0.5q0.700012,0.5 1,1l0.200012,0.5l0,0.5l0,0.5l1,0q1,0 1.5,0.800049q0.5,0.699951 2.5,2.199951q2,1.5 4,1.800049q2,0.199951 2,1.199951q0,1 2.5,1.5q2.5,0.5 3,1.300049q0.5,0.699951 12.5,5.699951q12,5 19.5,7q7.5,2 12,2.5l4.5,0.5l1.5,0.5l1.5,0.5l1,0.5l1,0.5l0,0.300049l0,0.199951l-180.5,0l-180.5,0l0,-581l0,-581l0.2,0l0.3,0l0.5,4.5l0.5,4.5l3.5,14q3.5,14 11.799999,31.199997q8.200001,17.300003 20.400002,34.600006q12.299999,17.199997 31.999996,39.699997q19.800003,22.5 20.800003,22.5q1,0 18.199997,21q17.300003,21 28.800003,41q11.5,20 17.5,37q6,17 9,33q3,16 2.5,31.5q-0.5,15.5 -4,25q-3.5,9.5 -10.800003,16.700012q-7.199997,7.299988 -18.199997,13.299988q-11,6 -15.5,7q-4.5,1 -14,0.5q-9.5,-0.5 -15,-0.5q-5.5,0 -6.5,0.5l-1,0.5l-0.199997,0.299988l-0.300003,0.200012l-0.300003,0.200012l-0.199997,0.299988l-0.199997,0.299988l-0.300003,0.200012l-0.5,1l-0.5,1l0.5,5q0.5,5 4.800003,10.799988q4.199997,5.700012 11.699997,8.700012q7.5,3 20.5,2.5q13,-0.5 24.5,-5.5q11.5,-5 22.300003,-14.700012q10.699997,-9.799988 15.699997,-17.799988q5,-8 5.5,-9l0.5,-1l0.300003,0.200012q0.199997,0.299988 2.199997,1.799988q2,1.5 7.5,2q5.5,0.5 8.699997,-2.200012q3.300003,-2.799988 6.800003,-10.799988q3.5,-8 4,-22q0.5,-14 -0.5,-20.5q-1,-6.5 -6,-22q-5,-15.5 -14.5,-35q-9.5,-19.5 -22,-37.5q-12.5,-18 -27,-33.5q-14.5,-15.5 -41.199997,-37.700012q-26.800003,-22.299988 -37.600006,-33.999985q-10.699997,-11.800003 -23.199997,-28.300003q-12.5,-16.5 -20,-31.5q-7.5,-15 -11.5,-29.5q-4,-14.5 -4.5,-28.5q-0.5,-14 2,-26q2.5,-12 8,-24.5q5.5,-12.5 14.200001,-24.5l8.799999,-12l0.799999,-0.5q0.700001,-0.5 1,-1l0.200001,-0.5l0.200001,0q0.299999,0 0.599998,-0.5l0.200001,-0.5l0.5,0l0.5,0l0.200001,0q0.299999,0 0.599998,-0.5l0.200001,-0.5l0.200001,0q0.299999,0 0.599998,-0.5l0.200001,-0.5l0.200001,0q0.299999,0 0.599998,-0.5l0.200001,-0.5l0.200001,0l0.299999,0l0.299999,-0.5l0.200001,-0.5l0.200001,0l0.299999,0l0.299999,-0.5l0.200001,-0.5l0.200001,0l0.299999,0l0.299999,-0.5l0.200001,-0.5l0.200001,0q0.299999,0 0.599998,-0.5l0.200001,-0.5l0.5,0l0.5,0l0.200001,0q0.299999,0 0.599998,-0.5l0.200001,-0.5l0.200001,0q0.299999,0 0.599998,-0.5l0.200001,-0.5l1.5,-0.799999q1.5,-0.700001 1.700001,-1l0.299999,-0.200001l0.299999,-0.200001l0.200001,-0.299999l1,-0.5l1,-0.5l0.200001,-0.299999l0.299999,-0.200001l0.299999,-0.200001l0.200001,-0.299999l1,-0.5l1,-0.5l3.5,-1.700001q3.5,-1.799999 3.5,-0.799999q0,1 -2.5,2.200001q-2.5,1.299999 -3.5,1.799999zm289,424l-1.5,-3l1.299988,2q1.200012,2 4.400024,5q3.299988,3 5.599976,6.5q2.200012,3.5 3.200012,3.5q1,0 12.799988,18.5q11.700012,18.5 16.700012,33.5q5,15 6,22q1,7 0.5,22.5q-0.5,15.5 -4,28q-3.5,12.5 -9,22.5q-5.5,10 -12.200012,17.799988q-6.799988,7.700012 -16.299988,13.700012q-9.5,6 -20.5,9.5q-11,3.5 -24,3.5q-13,0 -23,-3.5q-10,-3.5 -17,-8.5q-7,-5 -13.200012,-13.700012q-6.299988,-8.799988 -9.299988,-18.299988q-3,-9.5 -3,-23.5q0,-14 3,-22q3,-8 9.299988,-16.200012q6.200012,-8.299988 15.700012,-14.799988q9.5,-6.5 16.5,-9q7,-2.5 15,-2q8,0.5 9,1l1,0.5l1,0.5l1,0.5l0.200012,0.299988l0.299988,0.200012l0.299988,0.200012l0.200012,0.299988l0.200012,0.299988l0.299988,0.200012l0.299988,0.200012l0.200012,0.299988l0.200012,0.299988l0.299988,0.200012l0,2.5l0,2.5l-0.299988,0.200012l-0.200012,0.299988l-0.200012,0.299988l-0.299988,0.200012l-0.299988,0.200012l-0.200012,0.299988l-0.200012,0.299988l-0.299988,0.200012l-0.299988,0.200012l-0.200012,0.299988l-0.200012,0.299988q-0.299988,0.200012 -12,6.400024q-11.799988,6.299988 -20,13.599976q-8.299988,7.200012 -12.799988,16.200012q-4.5,9 -5,20q-0.5,11 2,18.5q2.5,7.5 8.5,14.5q6,7 14.299988,10.799988q8.200012,3.700012 24.200012,3.700012q16,0 25.5,-4q9.5,-4 16,-9q6.5,-5 13.299988,-13.700012q6.700012,-8.799988 11.700012,-21.299988q5,-12.5 7,-24.5q2,-12 0.5,-27q-1.5,-15 -8,-32q-6.5,-17 -18.799988,-35.799988l-12.200012,-18.700012l-0.200012,-0.299988q-0.299988,-0.200012 -0.799988,-0.700012q-0.5,-0.5 -2,-3.5zm-170.5,350.799988l-5.5,-0.799988l-0.199997,-1q-0.300003,-1 -1.300003,-2.5q-1,-1.5 -1,-9l0,-7.5l0,-1.5l0,-1.5l-0.300003,-0.200012l-0.199997,-0.299988l-1.5,0l-1.5,0l-1,0.5l-1,0.5l-0.199997,0.299988l-0.300003,0.200012l-0.300003,0.200012l-0.199997,0.299988l-0.199997,0.299988l-0.300003,0.200012l-0.300003,0.200012l-0.199997,0.299988l-0.199997,0.299988l-0.300003,0.200012l-0.300003,0.200012l-0.199997,0.299988l-0.199997,0.299988l-0.300003,0.200012l-2,4.5q-2,4.5 -1.5,10.5q0.5,6 3.800003,10.200012q3.199997,4.299988 6.699997,6.299988q3.5,2 4.5,2.5l1,0.5l1.5,0.5l1.5,0.5l2.5,0.5l2.5,0.5l-4.5,0l-4.5,0l-1.5,-0.5q-1.5,-0.5 -7.5,-4.200012q-6,-3.799988 -8.800003,-9.299988q-2.699997,-5.5 -3.199997,-12q-0.5,-6.5 2,-12q2.5,-5.5 6.800003,-8.700012q4.199997,-3.299988 11.699997,-3.799988q7.5,-0.5 12,1.5q4.5,2 8.300003,6.700012q3.699997,4.799988 4.199997,9.299988q0.5,4.5 -1.5,8q-2,3.5 -6.699997,6.299988q-4.800003,2.700012 -10.300003,2zm131.700012,65l-0.200012,-0.299988l-0.200012,-0.299988l-0.299988,-0.200012l-0.299988,-1q-0.200012,-1 0.799988,-1q1,0 0.799988,1.5q-0.299988,1.5 -0.599976,1.299988z"/>
  <path id="svg_3" fill="#FFFFFF" fill-rule="evenodd" stroke="#FFFFFF" stroke-width="0.5px" d="m383.200012,828.200012l-0.200012,0.299988l-0.200012,0.299988l-0.299988,0.200012l-0.299988,0.200012l-0.200012,0.299988l-0.200012,0.299988l-0.299988,0.200012l-0.299988,0.200012l-0.200012,0.299988l-0.200012,0.299988l-0.299988,0.200012l-0.5,1l-0.5,1l-0.299988,0.200012l-0.200012,0.299988l-0.200012,0.299988l-0.299988,0.200012l-0.299988,0.200012l-0.200012,0.299988l-2.799988,3.700012q-2.700012,3.799988 -3,4.299988l-0.200012,0.5l-0.200012,0q-0.299988,0 -0.599976,0.5l-0.200012,0.5l-22.799988,31.5q-22.700012,31.5 -37.200012,57.5q-14.5,26 -23,48q-8.5,22 -11.5,34.5q-3,12.5 -2.5,30q0.5,17.5 4,27q3.5,9.5 8,15.5q4.5,6 5.799988,7.199951q1.200012,1.300049 2.200012,1.800049l1,0.5l1,0.5l1,0.5l3,0l3,0l0.200012,-0.300049l0.299988,-0.199951l0.299988,-0.199951l0.200012,-0.300049l0.200012,-0.300049l0.299988,-0.199951l0.5,-1l0.5,-1l0,-4.5q0,-4.5 -3,-17q-3,-12.5 -3.5,-28q-0.5,-15.5 2,-31q2.5,-15.5 9.5,-36.5q7,-21 19.5,-46q12.5,-25 29.799988,-52l17.200012,-27l0.200012,0l0.299988,0l0.5,-1l0.5,-1l0.299988,-0.200012l0.200012,-0.299988l0.200012,-0.299988l0.299988,-0.200012l0.5,-1q0.5,-1 1.5,-2.5l1,-1.5l0.299988,-0.200012l0.200012,-0.299988l0.200012,-0.299988l0.299988,-0.200012l0.5,-1l0.5,-1l0.299988,-0.200012l0.200012,-0.299988l0.200012,-0.299988l0.299988,-0.200012l0.299988,-1l0.200012,-1l1,0l1,0l-0.200012,1l-0.299988,1l-0.5,1l-0.5,1l-0.5,1l-0.5,1l-0.5,1l-0.5,1l-0.5,1l-0.5,1l-8.5,23q-8.5,23 -12,38.5q-3.5,15.5 -4.5,24q-1,8.5 -0.5,24.5q0.5,16 1.5,22q1,6 1.5,8l0.5,2l0.5,2l0.5,2l0.5,1.5q0.5,1.5 0.799988,1.5l0.200012,0l0.200012,1.5l0.299988,1.5l5.5,12.5q5.5,12.5 15,26.5q9.5,14 20.200012,24.800049q10.799988,10.699951 24.799988,19.699951q14,9 26,14q12,5 24.5,7.5q12.5,2.5 33.5,2q21,-0.5 34.5,-4q13.5,-3.5 26.299988,-10.199951q12.700012,-6.800049 20.200012,-12.800049q7.5,-6 7.799988,-7q0.200012,-1 1.200012,-1q1,0 9.799988,-12.5q8.700012,-12.5 14.200012,-25.5q5.5,-13 5.799988,-16.5q0.200012,-3.5 1.200012,-3.5q1,0 1.200012,-2.5l0.299988,-2.5l0,-2l0,-2l-0.299988,0.200012l-0.200012,0.299988l-0.5,0.299988l-0.5,0.200012l0.200012,-1q0.299988,-1 0.799988,-3q0.5,-2 1,-5l0.5,-3l0.5,1l0.5,1l0.5,-2.5l0.5,-2.5l0.299988,0l0.200012,0l0,153.5l0,153.5l-139.5,0l-139.5,0l0,-0.199951l0,-0.300049l-1,-0.5l-1,-0.5l-1.5,-0.5l-1.5,-0.5l-4.5,-0.5q-4.5,-0.5 -12,-2.5q-7.5,-2 -18.700012,-6.699951q-11.299988,-4.800049 -13.599976,-4.800049q-2.200012,0 -2.200012,-1.5q0,-1.5 -2.5,-1.5q-2.5,0 -2.5,-1q0,-1 -1,-1.199951q-1,-0.300049 -3,-1.800049q-2,-1.5 -2.5,-2.199951q-0.5,-0.800049 -1.5,-0.800049l-1,0l0,-0.5l0,-0.5l-0.200012,-0.5q-0.299988,-0.5 -1,-1l-0.799988,-0.5l-1,0l-1,0l-0.200012,-1q-0.299988,-1 -2.799988,-3.5q-2.5,-2.5 -8.200012,-7.5q-5.799988,-5 -5.799988,-6q0,-1 -1,-1q-1,0 -1,-1.5q0,-1.5 -1,-1.5q-1,0 -6.5,-7.800049q-5.5,-7.699951 -14.300003,-22.399902q-8.699997,-14.800049 -15.699997,-31.800049q-7,-17 -12,-38q-5,-21 -5.5,-44q-0.5,-23 1,-33q1.5,-10 6.5,-27.5q5,-17.5 14.5,-37.5q9.5,-20 23.5,-41q14,-21 29.5,-39.5q15.5,-18.5 51.5,-54.5l36,-36l0.299988,-0.200012l0.200012,-0.299988l0.200012,-0.299988l0.299988,-0.200012l0.299988,-0.200012l0.200012,-0.299988l0.200012,-0.299988l0.299988,-0.200012l0.299988,-0.200012l0.200012,-0.299988l0.200012,-0.299988l0.299988,-0.200012l0.299988,-0.200012l0.200012,-0.299988l0.200012,-0.299988l0.299988,-0.200012l0.299988,-0.200012l0.200012,-0.299988l0.200012,-0.299988l0.299988,-0.200012l0.299988,-0.200012l0.200012,-0.299988l0.5,-1.299988q0.5,-1.200012 1.5,-1.200012q1,0 0.799988,1q-0.299988,1 -0.599976,1.200012zm84,401.999939l-0.200012,0.300049l-0.200012,0.300049l-0.299988,0.199951l-0.5,1.5l-0.5,1.5l-0.5,1l-0.5,1l-0.5,1l-0.5,1l-0.299988,0.199951l-0.200012,0.300049l-0.200012,0.300049l-0.299988,0.199951l0,-1.5l0,-1.5l0.5,-1l0.5,-1l0.5,-1l0.5,-1l0.5,-1.5q0.5,-1.5 2.5,-9q2,-7.5 2,-21q0,-13.5 -3,-18.5q-3,-5 -8.299988,-8.199951q-5.200012,-3.300049 -15.200012,-4.300049l-10,-1l0.200012,-0.300049l0.299988,-0.199951l1.5,-3q1.5,-3 1,-10.5q-0.5,-7.5 -6.200012,-13.300049q-5.799988,-5.699951 -8.299988,-6.699951q-2.5,-1 4,0q6.5,1 16.299988,5.300049q9.700012,4.199951 15.700012,10.199951q6,6 10,15q4,9 5.5,16q1.5,7 1,17.5q-0.5,10.5 -3.5,21q-3,10.5 -3.299988,10.699951z"/>
  <path id="svg_4" fill="#00007f" fill-rule="evenodd" stroke="#211D1E" stroke-width="0.5px" d="m44,35.200001l1,-0.200001l0,0.5l0,0.5l-0.200001,0.5q-0.299999,0.5 -0.599998,0.5l-0.200001,0l-0.200001,0.5q-0.299999,0.5 -0.599998,0.5l-0.200001,0l-1.5,1q-1.5,1 -1.5,2l0,1l-3.799999,3.5q-3.700001,3.5 -11.700001,16q-8,12.5 -12.5,26q-4.5,13.5 -5.5,20q-1,6.5 -0.5,20.5q0.5,14 4.5,28.5q4,14.5 11.5,29.5q7.5,15 20,31.5q12.5,16.5 23.199997,28.300003q10.800003,11.699997 37.600006,33.999985q26.699997,22.200012 41.199997,37.700012q14.5,15.5 27,33.5q12.5,18 22,37.5q9.5,19.5 14.5,35q5,15.5 6,22q1,6.5 0.5,20.5q-0.5,14 -4,22q-3.5,8 -6.800003,10.799988q-3.199997,2.700012 -8.699997,2.200012q-5.5,-0.5 -7.5,-2q-2,-1.5 -2.199997,-1.799988l-0.300003,-0.200012l-0.5,1q-0.5,1 -5.5,9q-5,8 -15.699997,17.799988q-10.800003,9.700012 -22.300003,14.700012q-11.5,5 -24.5,5.5q-13,0.5 -20.5,-2.5q-7.5,-3 -11.699997,-8.700012q-4.300003,-5.799988 -4.800003,-10.799988l-0.5,-5l0.5,-1l0.5,-1l0.300003,-0.200012l0.199997,-0.299988l0.199997,-0.299988l0.300003,-0.200012l0.300003,-0.200012l0.199997,-0.299988l1,-0.5q1,-0.5 6.5,-0.5q5.5,0 15,0.5q9.5,0.5 14,-0.5q4.5,-1 15.5,-7q11,-6 18.199997,-13.299988q7.300003,-7.200012 10.800003,-16.700012q3.5,-9.5 4,-25q0.5,-15.5 -2.5,-31.5q-3,-16 -9,-33q-6,-17 -17.5,-37q-11.5,-20 -28.800003,-41q-17.199997,-21 -18.199997,-21q-1,0 -20.800003,-22.5q-19.699997,-22.5 -31.999996,-39.699997q-12.200001,-17.300003 -20.400002,-34.600006q-8.299999,-17.199997 -11.799999,-31.199997l-3.5,-14l-0.5,-4.5l-0.5,-4.5l-0.3,0l-0.2,0l0,-8.5l0,-8.5l0.2,0l0.3,0l0.5,-4.5l0.5,-4.5l0.5,-3q0.5,-3 3,-12.5q2.5,-9.5 10,-23.5q7.5,-14 15.200001,-22.799999l7.799999,-8.700001l2.5,-2.5q2.5,-2.5 3.5,-2.799999z"/>
  <path id="svg_5" fill="#00007f" fill-rule="evenodd" stroke="#211D1F" stroke-width="0.5px" d="m129,0.2l0,-0.2l6.5,0l6.5,0l6.800003,3q6.699997,3 7,3.2q0.199997,0.3 0.399994,0.6l0.300003,0.2l0.5,1.5l0.5,1.5l0,0.5l0,0.5l-0.5,2l-0.5,2l-0.300003,0.2l-0.199997,0.3l-4,3.5q-4,3.5 -31,16q-27,12.5 -37.800003,19.799999q-10.699997,7.200001 -20.199997,15.700001q-9.5,8.5 -14,16.5q-4.5,8 -7,17.5q-2.5,9.5 -2,21.5q0.5,12 4.5,23q4,11 11.299999,21.199997q7.200001,10.300003 16.200001,19.300003q9,9 23.5,18.5q14.5,9.5 26.5,14q12,4.5 27.5,7.5q15.5,3 38.5,2.5q23,-0.5 35,-3.5q12,-3 22,-8.5q10,-5.5 18.799988,-14.199997q8.700012,-8.800003 14.200012,-18.300003q5.5,-9.5 7.5,-17q2,-7.5 1.5,-20q-0.5,-12.5 -4.5,-22q-4,-9.5 -9.299988,-16.300003q-5.200012,-6.699997 -6.200012,-7q-1,-0.199997 -4.5,-4q-3.5,-3.699997 -15.5,-10.199997q-12,-6.5 -18.5,-8q-6.5,-1.5 -8.5,-2l-2,-0.5l-3.5,-0.5l-3.5,-0.5l9.5,0.5q9.5,0.5 21.699997,5.199997q12.300003,4.800003 19.800003,10.300003q7.5,5.5 9.799988,8q2.200012,2.5 3.200012,2.5q1,0 7.799988,11q6.700012,11 9.200012,20q2.5,9 2,21q-0.5,12 -4,22q-3.5,10 -11,21q-7.5,11 -17.200012,19.199997q-9.799988,8.300003 -20.299988,13.300003q-10.5,5 -24,8q-13.5,3 -29,4q-15.5,1 -34.5,-1q-19,-2 -27,-4q-8,-2 -10,-2.5l-2,-0.5l-1.5,-0.5l-1.5,-0.5l-1,-0.5l-1,-0.5l-1.5,0l-1.5,0l0.199997,0.300003l0.300003,0.199997l0.300003,0.199997l0.199997,0.300003l0.199997,0.300003l0.300003,0.199997l0.300003,0.199997l0.199997,0.300003l1,0.5l1,0.5l0.199997,0.300003l0.300003,0.199997l0.300003,0.199997l0.199997,0.300003l0.199997,0.300003l0.300003,0.199997l0.300003,0.199997l0.199997,0.300003l21,13q21,13 22,13.5l1,0.5l1,0.5l1,0.5l1,0.5l1,0.5l0,0.299988l0,0.200012l-1,0.200012l-1,0.299988l0.199997,0.299988l0.300003,0.200012l0.300003,0.200012l0.199997,0.299988l-0.199997,0.299988l-0.300003,0.200012l-0.300003,0.200012l-0.199997,0.299988l-0.199997,0.299988l-0.300003,0.200012l-0.300003,0.5l-0.199997,0.5l-1,-0.200012l-1,-0.299988l-1,-0.5l-1,-0.5l-1,-0.5q-1,-0.5 -17.199997,-10.200012l-16.300003,-9.799988l-0.300003,-0.199997l-0.199997,-0.300003l-1,-0.5l-1,-0.5l-0.199997,-0.300003l-0.300003,-0.199997l-0.300003,-0.199997l-0.199997,-0.300003l-1,-0.5l-1,-0.5l-0.199997,-0.300003l-0.300003,-0.199997l-0.300003,-0.199997l-0.199997,-0.300003l-0.199997,-0.300003l-0.300003,-0.199997l0,1l0,1l0.300003,0.199997l0.199997,0.300003l0.199997,0.300003l0.300003,0.199997l0.300003,0.199997l0.199997,0.300003l0.199997,0.300003l0.300003,0.199997l0.300003,0.199997l0.199997,0.300003l0.199997,0.300003l0.300003,0.199997l0.300003,0.199997l0.199997,0.300003l0.199997,0.300003l0.300003,0.199997l0.300003,0.199997l0.199997,0.300003l0.199997,0.300003l0.300003,0.199997l0.300003,0.199997l0.199997,0.300003l14.800003,11.299988q14.699997,11.200012 15,11.700012l0.199997,0.5l-0.199997,0q-0.300003,0 -0.600006,1l-0.199997,1l-1,0.200012l-1,0.299988l1.5,0l1.5,0l1,-0.299988l1,-0.200012l-0.199997,1l-0.300003,1l-0.300003,2l-0.199997,2l-1,0l-1,0l-1,-0.200012l-1,-0.299988l-0.199997,-0.299988l-0.300003,-0.200012l-0.300003,-0.200012l-0.199997,-0.299988l-1,-0.5q-1,-0.5 -23.5,-17.5q-22.5,-17 -37,-31q-14.5,-14 -29.5,-33q-15,-19 -22.200001,-29.699997q-7.299999,-10.800003 -11.799999,-23.800003q-4.5,-13 -5,-31q-0.5,-18 3,-30.5q3.5,-12.5 10,-23.5q6.5,-11 18.5,-23l12,-12l0.299999,-0.200001l0.200001,-0.299999l1,-0.5l1,-0.5l0.200001,-0.299999l0.299999,-0.200001l0.299999,-0.200001l0.200001,-0.299999l0.200001,-0.299999l0.299999,-0.200001l0.299999,-0.200001l0.200001,-0.299999l1,-0.299999l1,-0.200001l0,-1l0,-1l-1,0.200001l-1,0.299999l-1,0.5l-1,0.5l-0.200001,0.299999l-0.299999,0.200001l-0.299999,0.200001l-0.200001,0.299999l-1,0.5l-1,0.5l-0.200001,0.299999l-0.299999,0.200001l-0.299999,0.200001q-0.200001,0.299999 -1.700001,1l-1.5,0.799999l-0.200001,0.5q-0.299999,0.5 -0.599998,0.5l-0.200001,0l-0.5,0.200001l-0.5,0.299999l0,0.299999l0,0.200001l0,0.200001l0,0.299999l-1,0.299999l-1,0.200001l-0.200001,0.5l-0.299999,0.5l-0.299999,0l-0.200001,0l-0.200001,0.5l-0.299999,0.5l-0.299999,0l-0.200001,0l-0.200001,0.5l-0.299999,0.5l-0.299999,0l-0.200001,0l-0.5,0l-0.5,0l0.200001,-1l0.299999,-1l0.299999,-0.200001l0.200001,-0.299999l0.200001,-0.299999l0.299999,-0.200001l0.299999,-0.200001l0.200001,-0.299999l1,-0.5l1,-0.5l0.200001,-0.299999l0.299999,-0.200001l0.299999,-0.200001l0.200001,-0.299999l0.200001,-0.299999l0.299999,-0.200001l0.299999,-0.200001l0.200001,-0.299999l14,-8q14,-8 26.5,-12q12.5,-4 25,-6q12.5,-2 12.5,-2.3zm-61,20.000001q1,-0.200001 1,0.799999q0,1 -1,1.200001q-1,0.299999 -1,-0.700001q0,-1 1,-1.299999zm41.199997,224.999996q0.300003,-0.199997 0.600006,0q0.199997,0.300003 -0.300003,0.300003q-0.5,0 -0.300003,-0.300003z"/>
  <path id="svg_6" fill="#FEFEFE" fill-rule="evenodd" stroke="#FEFEFE" stroke-width="0.5px" d="m0,60l0,-60l64.5,0l64.5,0l0,0.2q0,0.3 -4,0.8q-4,0.5 -21.5,4.5q-17.5,4 -31.5,11q-14,7 -16.5,9.700001l-2.5,2.799999l-0.200001,0.5q-0.299999,0.5 -0.599998,0.5l-0.200001,0l-0.200001,0.5q-0.299999,0.5 -0.599998,0.5l-0.200001,0l-0.200001,-1l-0.299999,-1l-0.299999,1l-0.200001,1l-0.5,0.200001q-0.5,0.299999 -0.5,0.599998l0,0.200001l-0.200001,0.5l-0.299999,0.5l-0.299999,0l-0.200001,0l-0.200001,1q-0.299999,1 -2.599998,2.5l-2.200001,1.5l-0.200001,-0.5q-0.299999,-0.5 -0.599998,0l-0.200001,0.5l-0.5,0.200001q-0.5,0.299999 -0.5,0.599998l0,0.200001l-1,0q-1,0 -1,1l0,1l-5.200001,4.5q-5.299999,4.5 -13.299999,17q-8,12.5 -12.5,25q-4.5,12.5 -5,15q-0.5,2.5 -1,5.5l-0.5,3l-0.5,4.5l-0.5,4.5l-0.3,0l-0.2,0l0,-60z"/>
  <path id="svg_7" fill="#00007f" fill-rule="evenodd" stroke="#211D1F" stroke-width="0.5px" d="m394,147.5l0.5,-8.5l0.5,2l0.5,2l0.5,2.5l0.5,2.5l0.5,2.5q0.5,2.5 2,12q1.5,9.5 1.5,31.5q0,22 -3,33q-3,11 -8.5,21q-5.5,10 -16,20.5q-10.5,10.5 -22.200012,17.299988q-11.799988,6.700012 -26.299988,11.200012q-14.5,4.5 -34.5,5q-20,0.5 -35,-2l-15,-2.5l-2,-0.299988l-2,-0.200012l-0.199997,-0.5l-0.300003,-0.5l-0.300003,0l-0.199997,0l-1,0l-1,0l-0.5,-0.200012q-0.5,-0.299988 -11.5,-3.799988l-11,-3.5l-1.5,-0.5l-1.5,-0.5l-1.5,-0.5l-1.5,-0.5l-0.199997,-0.299988l-0.300003,-0.200012l-0.300003,0l-0.199997,0l0,-0.200012l0,-0.299988l2,0l2,0l2,0.5l2,0.5l24.5,4.5q24.5,4.5 45,4q20.5,-0.5 33,-4q12.5,-3.5 19.5,-8.5q7,-5 11.200012,-10.299988q4.299988,-5.200012 6.299988,-11.200012q2,-6 1.5,-21q-0.5,-15 -4,-26.5q-3.5,-11.5 -4,-12.5q-0.5,-1 -1,-2l-0.5,-1l-0.5,-1l-0.5,-1l-0.299988,-0.199997l-0.200012,-0.300003l-0.200012,-0.300003l-0.299988,-0.199997l-0.5,-1l-0.5,-1l-0.299988,-0.199997l-0.200012,-0.300003l1,0l1,0l1,0.5l1,0.5l1.5,0.5l1.5,0.5l3,1q3,1 12,0.5q9,-0.5 15.200012,-4.800003q6.299988,-4.199997 10.299988,-12.199997q4,-8 5.5,-15.5q1.5,-7.5 2,-16z"/>
  <path id="svg_8" fill="#00007f" fill-rule="evenodd" stroke="#211D1F" stroke-width="0.5px" d="m372,843.200012l0,-0.200012l0.799988,0.5q0.700012,0.5 1,0.700012l0.200012,0.299988l0.200012,0.299988l0.299988,0.200012l0.299988,0.200012l0.200012,0.299988l0.200012,0.299988l0.299988,0.200012l0.299988,0.200012l0.200012,0.299988l0.200012,0.299988l0.299988,0.200012l0.299988,0.200012l0.200012,0.299988l-0.200012,0.299988l-0.299988,0.200012l0,1.5l0,1.5l0.299988,1l0.200012,1l-17.200012,27q-17.299988,27 -29.799988,52q-12.5,25 -19.5,46q-7,21 -9.5,36.5q-2.5,15.5 -2,31q0.5,15.5 3.5,28q3,12.5 3,17l0,4.5l-0.5,1l-0.5,1l-0.299988,0.199951l-0.200012,0.300049l-0.200012,0.300049l-0.299988,0.199951l-0.299988,0.199951l-0.200012,0.300049l-3,0l-3,0l-1,-0.5l-1,-0.5l-1,-0.5q-1,-0.5 -2.200012,-1.800049q-1.299988,-1.199951 -5.799988,-7.199951q-4.5,-6 -8,-15.5q-3.5,-9.5 -4,-27q-0.5,-17.5 2.5,-30q3,-12.5 11.5,-34.5q8.5,-22 23,-48q14.5,-26 37.200012,-57.5l22.799988,-31.5l0.5,-0.200012q0.5,-0.299988 0.5,-0.599976z"/>
  <path id="svg_9" fill="#00007f" fill-rule="evenodd" stroke="#212020" stroke-width="0.5px" d="m426.799988,755.5l17.200012,-22.5l0,1l0,1l1,-0.200012l1,-0.299988l0.200012,-0.299988l0.299988,-0.200012l0.299988,0.200012l0.200012,0.299988l0.200012,0.299988l0.299988,0.200012l0.299988,0.200012l0.200012,0.299988l1,0.5l1,0.5l2.5,0.299988l2.5,0.200012l-19.799988,30.5q-19.700012,30.5 -27.200012,48q-7.5,17.5 -9,22q-1.5,4.5 -1.799988,4.5l-0.200012,0l-1,0l-1,0l0.200012,-0.5l0.299988,-0.5l0,-1.5q0,-1.5 -0.5,-1l-0.5,0.5l-0.5,1l-0.5,1l-0.5,1l-0.5,1l-8.5,20.5q-8.5,20.5 -13.5,40q-5,19.5 -6,27.5q-1,8 -0.5,27.5q0.5,19.5 1.5,24.5q1,5 1.299988,7l0.200012,2l-1.200012,2q-1.299988,2 -1.599976,3l-0.200012,1l-0.200012,0q-0.299988,0 -0.799988,-1.5l-0.5,-1.5l-0.5,-2l-0.5,-2l-0.5,-2q-0.5,-2 -1.5,-8q-1,-6 -1.5,-22q-0.5,-16 0.5,-24.5q1,-8.5 4.5,-24q3.5,-15.5 12,-38.5l8.5,-23l0.5,-1l0.5,-1l0.5,-1l0.5,-1l0.5,-1l0.5,-1l0.299988,-1l0.200012,-1l-1,0.200012l-1,0.299988l-0.200012,0.299988l-0.299988,0.200012l-0.5,1l-0.5,1l-0.299988,0.200012l-0.200012,0.299988l-0.200012,0.299988l-0.299988,0.200012l-1,1.5q-1,1.5 -1.5,2.5l-0.5,1l-0.299988,0.200012l-0.200012,0.299988l-0.200012,0.299988l-0.299988,0.200012l-0.5,1l-0.5,1l-0.299988,0l-0.200012,0l-0.200012,-1l-0.299988,-1l0,-1.5l0,-1.5l0.299988,-0.200012l0.200012,-0.299988l-0.200012,-0.299988l-0.299988,-0.200012l-0.299988,-0.200012l-0.200012,-0.299988l-0.200012,-0.299988l-0.299988,-0.200012l-0.299988,-0.200012l-0.200012,-0.299988l-0.200012,-0.299988l-0.299988,-0.200012l-0.299988,-0.200012l-0.200012,-0.299988l-1.5,-0.299988l-1.5,-0.200012l0,-1l0,-1l1,-0.200012q1,-0.299988 3.5,-3.799988l2.5,-3.5l0.200012,-0.299988l0.299988,-0.200012l0.299988,-0.200012l0.200012,-0.299988l0.200012,-0.299988l0.299988,-0.200012l0.5,-1l0.5,-1l0.299988,-0.200012l0.200012,-0.299988l0.200012,-0.299988l0.299988,-0.200012l0.299988,-0.200012l0.200012,-0.299988l0.200012,-0.299988l0.299988,-0.200012l0.299988,-0.200012l0.200012,-0.299988l-1,0l-1,0l-0.200012,0.299988l-0.299988,0.200012l-0.299988,0.200012l-0.200012,0.299988l-0.200012,0.299988l-0.299988,0.200012l-0.299988,0.200012l-0.200012,0.299988l-0.200012,0.299988l-0.299988,0.200012l-0.299988,0.200012l-0.200012,0.299988l-0.200012,0.299988l-0.299988,0.200012l-0.299988,0.200012l-0.200012,0.299988l-0.200012,0.299988l-0.299988,0.200012l-0.299988,0.200012l-0.200012,0.299988l-0.200012,0.299988l-0.299988,0.200012l-36,36q-36,36 -51.5,54.5q-15.5,18.5 -29.5,39.5q-14,21 -23.5,41q-9.5,20 -14.5,37.5q-5,17.5 -6.5,27.5q-1.5,10 -1,33q0.5,23 5.5,44q5,21 12,38q7,17 15.699997,31.800049q8.800003,14.699951 14.300003,22.399902q5.5,7.800049 6.5,7.800049q1,0 1,1.5q0,1.5 1,1.5q1,0 1,1q0,1 5.799988,6q5.700012,5 8.200012,7.5q2.5,2.5 2.799988,3.5l0.200012,1l1,0l1,0l0,0.199951l0,0.300049l0.200012,0.300049l0.299988,0.199951l0.299988,0.199951l0.200012,0.300049l0.5,0.300049l0.5,0.199951l0,0.5l0,0.5l0.200012,0l0.299988,0l0.299988,1l0.200012,1l-1,-0.199951l-1,-0.300049l-0.200012,-0.300049l-0.299988,-0.199951l-0.299988,-0.199951l-0.200012,-0.300049l-0.200012,-0.300049l-0.299988,-0.199951l-0.299988,-0.199951l-0.200012,-0.300049l-0.200012,-0.300049l-0.299988,-0.199951l-0.299988,-0.199951l-0.200012,-0.300049l-1,-0.5l-1,-0.5l-0.200012,-0.300049q-0.299988,-0.199951 -3.599976,-3.699951q-3.200012,-3.5 -5.200012,-3.699951q-2,-0.300049 -3.5,-2.600098q-1.5,-2.199951 -2.5,-2.199951q-1,0 -1.200012,-1q-0.299988,-1 -1.599976,-1.5q-1.200012,-0.5 -10.400024,-12.5q-9.299988,-12 -18.799988,-28q-9.5,-16 -16.5,-34q-7,-18 -11.5,-38q-4.5,-20 -4.5,-47q0,-27 5.5,-49q5.5,-22 14.5,-42.5q9,-20.5 22,-41q13,-20.5 33.299988,-45.5q20.200012,-25 21.200012,-25q1,0 1.200012,-1q0.299988,-1 26.599976,-27.799988l26.200012,-26.700012l0.200012,-0.299988l0.299988,-0.200012l0.299988,-0.200012l0.200012,-0.299988l0.200012,-0.299988l0.299988,-0.200012l0.299988,-0.200012l0.200012,-0.299988l0.200012,-0.299988l0.299988,-0.200012l0.299988,-0.200012l0.200012,-0.299988l0.200012,-0.299988l0.299988,-0.200012l0.299988,-0.200012l0.200012,-0.299988l0.200012,-0.299988l0.299988,-0.200012l0.299988,-0.200012l0.200012,-0.299988l0.200012,-0.299988l0.299988,-0.200012l0,-1l0,-1l-0.299988,0.200012l-0.200012,0.299988l-0.200012,0.299988l-0.299988,0.200012l-0.299988,0.200012l-0.200012,0.299988l-0.200012,0.299988l-0.299988,0.200012l-0.299988,0.200012l-0.200012,0.299988l-0.200012,0.299988l-0.299988,0.200012l-0.299988,0.200012l-0.200012,0.299988l-1,0.5l-1,0.5l-0.200012,0.299988l-0.299988,0.200012l-0.299988,0.200012l-0.200012,0.299988l-0.200012,0.299988l-0.299988,0.200012l-14.299988,10.799988q-14.200012,10.700012 -15.400024,11.400024q-1.299988,0.799988 -1.599976,1l-0.200012,0.299988l-0.200012,0.299988l-0.299988,0.200012l-0.299988,0.200012l-0.200012,0.299988l-1,0.5l-1,0.5l-1,0.5l-1,0.5l-0.200012,0.299988l-0.299988,0.200012l-0.299988,0.200012l-0.200012,0.299988l-0.200012,0.299988l-0.299988,0.200012l-0.299988,0.200012l-0.200012,0.299988l-0.200012,0.299988l-0.299988,0.200012l-0.299988,0.200012l-0.200012,0.299988l-1,0l-1,0l-0.200012,-0.299988l-0.299988,-0.200012l-0.299988,-0.200012l-0.200012,-0.299988l0.200012,-0.299988l0.299988,-0.200012l0.299988,-0.200012l0.200012,-0.299988l1,-0.5l1,-0.5l1,-0.299988l1,-0.200012l0,-1l0,-1l1,-0.200012l1,-0.299988l0.200012,-0.299988l0.299988,-0.200012l0.299988,-0.200012l0.200012,-0.299988l1,-0.5q1,-0.5 3,-2q2,-1.5 20.5,-16q18.5,-14.5 41.700012,-37.799988q23.299988,-23.200012 40.599976,-45.700012zm-62.599976,71.700012q0.299988,-0.200012 0.599976,0q0.200012,0.299988 -0.299988,0.299988q-0.5,0 -0.299988,-0.299988z"/>
  <path id="svg_10" fill="#00007f" fill-rule="evenodd" stroke="#211E1F" stroke-width="0.5px" d="m352,449l-1.5,-3l1.299988,2q1.200012,2 4.400024,5q3.299988,3 5.599976,6.5q2.200012,3.5 3.200012,3.5q1,0 12.799988,18.5q11.700012,18.5 16.700012,33.5q5,15 6,22q1,7 0.5,22.5q-0.5,15.5 -4,28q-3.5,12.5 -9,22.5q-5.5,10 -12.200012,17.799988q-6.799988,7.700012 -16.299988,13.700012q-9.5,6 -20.5,9.5q-11,3.5 -24,3.5q-13,0 -23,-3.5q-10,-3.5 -17,-8.5q-7,-5 -13.200012,-13.700012q-6.299988,-8.799988 -9.299988,-18.299988q-3,-9.5 -3,-23.5q0,-14 3,-22q3,-8 9.299988,-16.200012q6.200012,-8.299988 15.700012,-14.799988q9.5,-6.5 16.5,-9q7,-2.5 15,-2q8,0.5 9,1l1,0.5l1,0.5l1,0.5l0.200012,0.299988l0.299988,0.200012l0.299988,0.200012l0.200012,0.299988l0.200012,0.299988l0.299988,0.200012l0.299988,0.200012l0.200012,0.299988l0.200012,0.299988l0.299988,0.200012l0,2.5l0,2.5l-0.299988,0.200012l-0.200012,0.299988l-0.200012,0.299988l-0.299988,0.200012l-0.299988,0.200012l-0.200012,0.299988l-0.200012,0.299988l-0.299988,0.200012l-0.299988,0.200012l-0.200012,0.299988l-0.200012,0.299988q-0.299988,0.200012 -12,6.400024q-11.799988,6.299988 -20,13.599976q-8.299988,7.200012 -12.799988,16.200012q-4.5,9 -5,20q-0.5,11 2,18.5q2.5,7.5 8.5,14.5q6,7 14.299988,10.799988q8.200012,3.700012 24.200012,3.700012q16,0 25.5,-4q9.5,-4 16,-9q6.5,-5 13.299988,-13.700012q6.700012,-8.799988 11.700012,-21.299988q5,-12.5 7,-24.5q2,-12 0.5,-27q-1.5,-15 -8,-32q-6.5,-17 -18.799988,-35.799988l-12.200012,-18.700012l-0.200012,-0.299988q-0.299988,-0.200012 -0.799988,-0.700012q-0.5,-0.5 -2,-3.5z"/>
  <path id="svg_11" fill="#00007f" fill-rule="evenodd" stroke="#221F20" stroke-width="0.5px" d="m364.5,412.200012l-0.5,-1.200012l1,0q1,0 4,3.200012q3,3.299988 20.5,18.299988q17.5,15 33.700012,32.700012q16.299988,17.799988 27.299988,34.799988q11,17 18.5,34.5q7.5,17.5 12,36.5q4.5,19 5.5,28q1,9 0.5,28.5q-0.5,19.5 -5,40q-4.5,20.5 -12.799988,39.700012q-8.200012,19.299988 -10.400024,23q-2.299988,3.799988 -2.799988,4.799988l-0.5,1l-0.299988,0.5l-0.200012,0.5l-0.200012,0l-0.299988,0l-0.299988,0.5l-0.200012,0.5l0,0.200012l0,0.299988l-1,0l-1,0l-0.200012,-0.299988l-0.299988,-0.200012l-0.299988,-0.200012l-0.200012,-0.299988l-0.200012,-0.299988l-0.299988,-0.200012l-0.299988,-0.200012l-0.200012,-0.299988l-1,-0.5l-1,-0.5l-0.200012,-0.299988l-0.299988,-0.200012l-0.299988,-0.200012l-0.200012,-0.299988l-0.200012,-0.299988l-0.299988,-0.200012l-0.299988,0.200012l-0.200012,0.299988l-1,0.299988l-1,0.200012l0,-1l0,-1l0.200012,-1l0.299988,-1l0.299988,-0.200012q0.200012,-0.299988 1.400024,-2.599976q1.299988,-2.200012 10.299988,-25.200012q9,-23 13.5,-42q4.5,-19 5,-36.5q0.5,-17.5 -1,-29q-1.5,-11.5 -6.5,-29.5q-5,-18 -13,-35q-8,-17 -19,-32.5q-11,-15.5 -25,-30.5q-14,-15 -32,-30.5l-18,-15.5l-0.299988,-0.200012l-0.200012,-0.299988l-0.200012,-0.299988l-0.299988,-0.200012l-0.299988,-0.200012l-0.200012,-0.299988l-0.200012,-0.299988l-0.299988,-0.200012l-0.299988,-0.200012l-0.200012,-0.299988l0,-0.299988l0,-0.200012l0.5,-0.200012l0.5,-0.299988l2.5,-0.5l2.5,-0.5l-0.200012,-0.299988q-0.299988,-0.200012 0.700012,-1.700012l1,-1.5l-0.299988,-0.200012q-0.200012,-0.299988 -0.700012,-1.599976zm1.700012,4l0.299988,-0.200012l0.299988,0.200012l0.200012,0.299988l-0.5,0q-0.5,0 -0.299988,-0.299988z"/>
  <path id="svg_12" fill="#00007f" fill-rule="evenodd" stroke="#201F20" stroke-width="0.5px" d="m554.5,900l5.5,-3.5l1.5,0q1.5,0 -3.5,3.5q-5,3.5 -8.200012,7.799988q-3.299988,4.200012 -3.299988,12.200012q0,8 2.700012,11.799988q2.799988,3.700012 3,4l0.299988,0.200012l0.299988,0.200012l0.200012,0.299988l1,0.5l1,0.5l0.200012,0.299988l0.299988,0.200012l0.299988,0.200012l0.200012,0.299988l1,0.5l1,0.5l2.5,0l2.5,0l0.200012,-0.299988l0.299988,-0.200012l0,-1.5l0,-1.5l-0.299988,-0.200012l-0.200012,-0.299988l-0.200012,-0.299988l-0.299988,-0.200012l-0.299988,-0.200012l-0.200012,-0.299988l-0.200012,-0.299988q-0.299988,-0.200012 -0.799988,-1.200012q-0.5,-1 -0.5,-8.5q0,-7.5 3.299988,-9.700012q3.200012,-2.299988 9.200012,-2.299988q6,0 9.799988,3.299988q3.700012,3.200012 4.700012,9.200012q1,6 -1.5,11q-2.5,5 -8.200012,8.200012q-5.799988,3.299988 -13.299988,3.799988q-7.5,0.5 -11.5,-1.5q-4,-2 -7.799988,-7.700012q-3.700012,-5.799988 -3.700012,-14.799988q0,-9 3.700012,-14.799988q3.799988,-5.700012 9.299988,-9.200012z"/>
  <path id="svg_13" fill="#00007f" fill-rule="evenodd" stroke="#222021" stroke-width="0.5px" d="m147.800003,278l0.199997,0l54,31.799988q54,31.700012 88.799988,53q34.700012,21.200012 53,34q18.200012,12.700012 18.400024,13l0.299988,0.200012l0.299988,0.200012l0.200012,0.299988l0.5,0.299988l0.5,0.200012l0,0.200012l0,0.299988l0.5,0.299988l0.5,0.200012l0.200012,1l0.299988,1l0.5,1l0.5,1l0.299988,0.200012l0.200012,0.299988l-1,0.5l-1,0.5l-3,0.5l-3,0.5l-0.5,0.299988l-0.5,0.200012l-1,-0.200012l-1,-0.299988l-0.200012,-0.299988q-0.299988,-0.200012 -22.299988,-15.700012q-22,-15.5 -68.700012,-43.700012q-46.799988,-28.299988 -82.299988,-50.299988l-35.5,-22l0,-0.299988l0,-0.200012l0,-1l0,-1l1,0l1,0l-0.199997,-1q-0.300003,-1 -2,-1.799988l-1.800003,-0.700012l1,-0.299988l1,-0.200012l0.199997,-1q0.300003,-1 0.600006,-1zm215.400009,138.200012q0.299988,-0.200012 0.599976,0q0.200012,0.299988 -0.299988,0.299988q-0.5,0 -0.299988,-0.299988z"/>
  <path id="svg_14" fill="#00007f" fill-rule="evenodd" stroke="#282728" stroke-width="0.5px" d="m365.799988,994l1.200012,-2l6.200012,15q6.299988,15 15.599976,28.199951q9.200012,13.300049 20.700012,24.800049q11.5,11.5 24.5,20q13,8.5 25.5,13.5q12.5,5 27,7.5q14.5,2.5 29.5,2q15,-0.5 31.5,-4.5q16.5,-4 29.299988,-11.300049q12.700012,-7.199951 19.700012,-13.199951q7,-6 7.299988,-7q0.200012,-1 1.200012,-1q1,0 9.799988,-13.5q8.700012,-13.5 13.200012,-24q4.5,-10.5 5,-13l0.5,-2.5l0.5,-1.5l0.5,-1.5l0.299988,-1.5l0.200012,-1.5l0.5,-0.200012l0.5,-0.299988l0.200012,-0.299988l0.299988,-0.200012l0,2l0,2l-0.5,3.5q-0.5,3.5 -1.5,6q-1,2.5 -6.5,15.5q-5.5,13 -14.200012,25.5q-8.799988,12.5 -9.799988,12.5q-1,0 -1.200012,1q-0.299988,1 -7.799988,7q-7.5,6 -20.200012,12.800049q-12.799988,6.699951 -26.299988,10.199951q-13.5,3.5 -34.5,4q-21,0.5 -33.5,-2q-12.5,-2.5 -24.5,-7.5q-12,-5 -26,-14q-14,-9 -24.799988,-19.699951q-10.700012,-10.800049 -20.200012,-24.800049q-9.5,-14 -15,-26.5l-5.5,-12.5l-0.299988,-1.5l-0.200012,-1.5l0.200012,-1q0.299988,-1 1.599976,-3z"/>
  <path id="svg_15" fill="#00007f" fill-rule="evenodd" stroke="#221E20" stroke-width="0.5px" d="m181.5,799.799988l-5.5,-0.799988l-0.199997,-1q-0.300003,-1 -1.300003,-2.5q-1,-1.5 -1,-9l0,-7.5l0,-1.5l0,-1.5l-0.300003,-0.200012l-0.199997,-0.299988l-1.5,0l-1.5,0l-1,0.5l-1,0.5l-0.199997,0.299988l-0.300003,0.200012l-0.300003,0.200012l-0.199997,0.299988l-0.199997,0.299988l-0.300003,0.200012l-0.300003,0.200012l-0.199997,0.299988l-0.199997,0.299988l-0.300003,0.200012l-0.300003,0.200012l-0.199997,0.299988l-0.199997,0.299988l-0.300003,0.200012l-2,4.5q-2,4.5 -1.5,10.5q0.5,6 3.800003,10.200012q3.199997,4.299988 6.699997,6.299988q3.5,2 4.5,2.5l1,0.5l1.5,0.5l1.5,0.5l2.5,0.5l2.5,0.5l-4.5,0l-4.5,0l-1.5,-0.5q-1.5,-0.5 -7.5,-4.200012q-6,-3.799988 -8.800003,-9.299988q-2.699997,-5.5 -3.199997,-12q-0.5,-6.5 2,-12q2.5,-5.5 6.800003,-8.700012q4.199997,-3.299988 11.699997,-3.799988q7.5,-0.5 12,1.5q4.5,2 8.300003,6.700012q3.699997,4.799988 4.199997,9.299988q0.5,4.5 -1.5,8q-2,3.5 -6.699997,6.299988q-4.800003,2.700012 -10.300003,2z"/>
  <path id="svg_16" fill="#00007f" fill-rule="evenodd" stroke="#212020" stroke-width="0.5px" d="m394.799988,843l0.200012,-1l1,0l1,0l-1.200012,8q-1.299988,8 -0.799988,19.5q0.5,11.5 3.5,17.5q3,6 7.700012,9.200012q4.799988,3.299988 13.799988,4.299988q9,1 11,0.5l2,-0.5l1,-0.299988l1,-0.200012l-0.200012,1l-0.299988,1l-0.299988,0.200012l-0.200012,0.299988l-0.200012,0.299988l-0.299988,0.200012l-1,3q-1,3 -0.5,8.5q0.5,5.5 3.799988,9.700012q3.200012,4.299988 4.700012,5.299988q1.5,1 2.5,1.5l1,0.5l1,0.5l1,0.5l1,0.5l1,0.5l1,0.5l1,0.5l-4,0l-4,0l-3,-0.5q-3,-0.5 -5,-1q-2,-0.5 -11.5,-5q-9.5,-4.5 -15.700012,-11.799988q-6.299988,-7.200012 -10.299988,-17.700012q-4,-10.5 -4.5,-26q-0.5,-15.5 1,-22l1.5,-6.5l0.299988,-1z"/>
  <path id="svg_17" fill="#00007f" fill-rule="evenodd" stroke="#221F20" stroke-width="0.5px" d="m467.200012,1230.199951l-0.200012,0.300049l-0.200012,0.300049l-0.299988,0.199951l-0.5,1.5l-0.5,1.5l-0.5,1l-0.5,1l-0.5,1l-0.5,1l-0.299988,0.199951l-0.200012,0.300049l-0.200012,0.300049l-0.299988,0.199951l0,-1.5l0,-1.5l0.5,-1l0.5,-1l0.5,-1l0.5,-1l0.5,-1.5q0.5,-1.5 2.5,-9q2,-7.5 2,-21q0,-13.5 -3,-18.5q-3,-5 -8.299988,-8.199951q-5.200012,-3.300049 -15.200012,-4.300049l-10,-1l0.200012,-0.300049l0.299988,-0.199951l1.5,-3q1.5,-3 1,-10.5q-0.5,-7.5 -6.200012,-13.300049q-5.799988,-5.699951 -8.299988,-6.699951q-2.5,-1 4,0q6.5,1 16.299988,5.300049q9.700012,4.199951 15.700012,10.199951q6,6 10,15q4,9 5.5,16q1.5,7 1,17.5q-0.5,10.5 -3.5,21q-3,10.5 -3.299988,10.699951z"/>
  <path id="svg_18" fill="#00007f" fill-rule="evenodd" stroke="#231F21" stroke-width="0.5px" d="m377.118378,15.2l5.799988,-3.7l1.5,0q1.5,0 -4.299988,5.700001q-5.700012,5.799999 -8.200012,12.299999q-2.5,6.5 -2,15q0.5,8.5 3.200012,10.299999q2.799988,1.700001 7.299988,1.400002q4.5,-0.200001 7,-8.400002q2.5,-8.299999 3.700012,-10q1.299988,-1.799999 1.599976,-2l0.200012,-0.299999l0.200012,-0.299999l0.299988,-0.200001l0.299988,-0.200001l0.200012,-0.299999l0.200012,-0.299999l0.299988,-0.200001l0.299988,-0.200001l0.200012,-0.299999l0.200012,-0.299999l0.299988,-0.200001l0.299988,-0.200001l0.200012,-0.299999l3,0l3,0l0.200012,0.299999l0.299988,0.200001l0.5,1l0.5,1l0.299988,0.200001l0.200012,0.299999l0.200012,0.299999l0.299988,0.200001l0.5,1.5q0.5,1.5 1.5,7q1,5.5 -0.700012,10.700001q-1.799988,5.299999 -5.799988,7.799999q-4,2.5 -11,3q-7,0.5 -12.200012,-2.200001q-5.299988,-2.799999 -8.799988,-8.299999q-3.5,-5.5 -3.5,-14.5q0,-9 3.5,-15.5q3.5,-6.5 9.200012,-10.3z"/>
  <path id="svg_19" fill="#00007f" fill-rule="evenodd" stroke="#252324" stroke-width="0.5px" d="m520.5,100l0,-1l0.299988,0.199997l0.200012,0.300003l0.200012,0.300003l0.299988,0.199997l0.5,1l0.5,1l0.5,1.5l0.5,1.5l0.5,1l0.5,1l0.5,1.5q0.5,1.5 2,6.5q1.5,5 4,20q2.5,15 1.5,32.5q-1,17.5 -4,29.5q-3,12 -9.5,26q-6.5,14 -15.5,26q-9,12 -21,22q-12,10 -24.700012,16.799988q-12.799988,6.700012 -31.799988,12.700012q-19,6 -44,10q-25,4 -55,4.5q-30,0.5 -55,-3.5q-25,-4 -48.5,-11q-23.5,-7 -42.5,-15.5l-19,-8.5l-1,-0.5l-1,-0.5l-1,-0.5l-1,-0.5l0,-0.299988l0,-0.200012l0.199997,-0.5l0.300003,-0.5l0.300003,-0.200012l0.199997,-0.299988l0.199997,-0.299988l0.300003,-0.200012l0.300003,-0.200012l0.199997,-0.299988l-0.199997,-0.299988l-0.300003,-0.200012l-0.300003,-0.200012l-0.199997,-0.299988l1,-0.299988l1,-0.200012l1,0.200012l1,0.299988l1,0.5l1,0.5l14.5,6q14.5,6 15.5,5.700012q1,-0.200012 1,0.799988q0,1 3,1.200012q3,0.299988 3.5,0.599976l0.5,0.200012l0.199997,0l0.300003,0l0.300003,0.200012l0.199997,0.299988l1.5,0.5l1.5,0.5l1.5,0.5l1.5,0.5l11,3.5q11,3.5 11.5,3.799988l0.5,0.200012l0,0.200012l0,0.299988l0.800003,-0.299988q0.699997,-0.200012 1,-0.200012l0.199997,0l0.199997,0l0.300003,0l0.300003,0.5l0.199997,0.5l0,0.200012q0,0.299988 1.5,0.799988l1.5,0.5l23.5,4.5q23.5,4.5 35,5.5q11.5,1 38.5,0.5q27,-0.5 49,-4.5q22,-4 39,-10q17,-6 32.200012,-14.700012q15.299988,-8.799988 25.299988,-17.799988q10,-9 19,-21.5q9,-12.5 15.5,-28q6.5,-15.5 9.5,-32q3,-16.5 2.5,-32.5q-0.5,-16 -2.5,-26q-2,-10 -2.5,-12l-0.5,-2l-0.5,-2l-0.5,-2l-0.5,-1.5l-0.5,-1.5l0,-1z"/>
 </g>
</svg>